#!OML:ASF E:\Steps\Project 1\Capture day 1\Session 2\Subject.ASF
:FULLY-SPECIFIED
:DEGREES
518
root 8.87414 16.304 18.9978 -56.6521 -87.9648 83.6156
lowerback -30.6566 -2.54685 -5.99507
upperback -3.58411 -1.71866 -0.0790823
thorax 12.1415 -1.23084 2.45671
lowerneck 0.442843 0.487726 -10.2622
upperneck 7.43536 -0.200939 13.766
head 2.09363 -0.097873 5.89257
rclavicle 7.20594e-016 -4.17448e-014
rhumerus -36.0461 -23.1448 -76.8643
rradius 24.2539
rwrist 7.35472
rhand -9.70856 -49.95
rfingers 7.12502
rthumb 16.2643 -79.2878
lclavicle 7.20594e-016 -4.17448e-014
lhumerus -30.4298 13.3708 79.0135
lradius 12.8064
lwrist -18.881
lhand -23.1992 -13.4206
lfingers 7.12502
lthumb 3.25068 16.5344
rfemur -24.2685 8.36407 17.5362
rtibia 9.1332
rfoot -20.5032 -10.0708
rtoes -26.0566
lfemur -25.7495 -11.8239 -17.7435
ltibia 8.16189
lfoot -6.8894 -1.74004
ltoes -33.7951
519
root 8.87273 16.3046 18.9981 -56.7851 -87.9797 83.7482
lowerback -30.6832 -2.54011 -5.97538
upperback -3.5516 -1.714 -0.058324
thorax 12.1901 -1.22882 2.46929
lowerneck 0.41004 0.491145 -10.2122
upperneck 7.46636 -0.191858 13.6906
head 2.10761 -0.0920715 5.86061
rclavicle -2.16178e-015 1.15295e-014
rhumerus -35.8782 -22.8413 -76.985
rradius 24.2031
rwrist 7.06758
rhand -9.83468 -50.1834
rfingers 7.12502
rthumb 16.1428 -79.5312
lclavicle -2.16178e-015 1.15295e-014
lhumerus -30.5827 14.3301 78.5078
lradius 12.6778
lwrist -19.8939
lhand -22.9051 -13.3427
lfingers 7.12502
lthumb 3.53476 16.6078
rfemur -24.2847 8.36951 17.5333
rtibia 9.17343
rfoot -20.6159 -9.9485
rtoes -25.5209
lfemur -25.7317 -11.8713 -17.7121
ltibia 8.13654
lfoot -6.7951 -1.65197
ltoes -34.8118
520
root 8.87037 16.3039 18.9941 -56.3593 -88.025 83.3278
lowerback -30.6797 -2.55436 -5.97485
upperback -3.55678 -1.74063 0.000825497
thorax 12.1874 -1.24166 2.52248
lowerneck 0.38927 0.499126 -10.213
upperneck 7.50446 -0.178051 13.6288
head 2.12094 -0.0853027 5.84186
rclavicle -8.44835e-016 2.22639e-014
rhumerus -35.7992 -22.5829 -77.0405
rradius 24.1725
rwrist 6.76294
rhand -9.74549 -50.4259
rfingers 7.12502
rthumb 16.2287 -79.7666
lclavicle -8.44835e-016 2.22639e-014
lhumerus -30.7747 14.3874 78.5077
lradius 12.6964
lwrist -19.6324
lhand -23.0565 -13.2839
lfingers 7.12502
lthumb 3.3885 16.6689
rfemur -24.2709 8.68858 17.5105
rtibia 9.35558
rfoot -20.9819 -9.92609
rtoes -23.7189
lfemur -25.7291 -11.7476 -17.6665
ltibia 8.14908
lfoot -6.93999 -1.70941
ltoes -33.1935
521
root 8.86848 16.3029 18.9901 -54.5103 -88.0727 81.4998
lowerback -30.6842 -2.56281 -5.94723
upperback -3.56989 -1.7665 0.0394511
thorax 12.178 -1.25263 2.5392
lowerneck 0.383458 0.499939 -10.228
upperneck 7.53892 -0.175081 13.5744
head 2.13197 -0.0847166 5.82764
rclavicle -1.11816e-015 -1.59028e-015
rhumerus -35.796 -22.6494 -76.9855
rradius 24.1197
rwrist 6.82143
rhand -9.78722 -50.4501
rfingers 7.12502
rthumb 16.1885 -79.7941
lclavicle -1.11816e-015 -1.59028e-015
lhumerus -30.9535 13.9865 78.6881
lradius 12.7565
lwrist -19.0531
lhand -23.2105 -13.2401
lfingers 7.12502
lthumb 3.23983 16.715
rfemur -24.327 8.65464 17.6256
rtibia 9.32101
rfoot -20.7687 -10.1236
rtoes -24.6166
lfemur -25.7759 -11.5378 -17.6267
ltibia 8.20549
lfoot -7.05547 -1.90695
ltoes -31.7052
522
root 8.86821 16.3022 18.988 -53.5423 -88.1098 80.5462
lowerback -30.6928 -2.57056 -5.93149
upperback -3.55924 -1.78407 0.0717145
thorax 12.1965 -1.26062 2.55835
lowerneck 0.373626 0.500808 -10.209
upperneck 7.56988 -0.171282 13.507
head 2.14268 -0.0830765 5.80346
rclavicle 1.63003e-014 3.79679e-014
rhumerus -35.7071 -22.9186 -76.838
rradius 23.9677
rwrist 7.18571
rhand -9.77939 -49.997
rfingers 7.12502
rthumb 16.1961 -79.3404
lclavicle 1.63003e-014 3.79679e-014
lhumerus -31.0883 14.2393 78.5202
lradius 12.7214
lwrist -19.4488
lhand -23.2475 -13.0529
lfingers 7.12502
lthumb 3.20408 16.9028
rfemur -24.3261 8.77339 17.6469
rtibia 9.42579
rfoot -20.9182 -10.1084
rtoes -23.4557
lfemur -25.7965 -11.3896 -17.6014
ltibia 8.21334
lfoot -6.99396 -2.0513
ltoes -33.1588
523
root 8.86871 16.3016 18.9875 -53.2584 -88.1225 80.2753
lowerback -30.6672 -2.54584 -5.89604
upperback -3.56319 -1.76523 0.0696169
thorax 12.179 -1.24988 2.54519
lowerneck 0.349749 0.486244 -10.1794
upperneck 7.60343 -0.188376 13.4474
head 2.15902 -0.09088 5.77973
rclavicle -3.90115e-015 2.66371e-014
rhumerus -35.665 -23.0366 -76.7731
rradius 23.9138
rwrist 7.27348
rhand -9.70764 -49.7035
rfingers 7.12502
rthumb 16.2652 -79.0412
lclavicle -3.90115e-015 2.66371e-014
lhumerus -31.1796 14.2649 78.4499
lradius 12.6923
lwrist -19.5255
lhand -23.3643 -12.7881
lfingers 7.12502
lthumb 3.0913 17.1693
rfemur -24.3265 8.65852 17.6858
rtibia 9.30244
rfoot -20.7987 -9.99714
rtoes -23.6903
lfemur -25.8007 -11.369 -17.5826
ltibia 8.18908
lfoot -6.97039 -2.09481
ltoes -33.8967
524
root 8.86697 16.302 18.9873 -52.984 -88.0764 79.9789
lowerback -30.6404 -2.49971 -5.90678
upperback -3.56593 -1.69696 0.0193711
thorax 12.1567 -1.21777 2.52414
lowerneck 0.35043 0.453012 -10.1161
upperneck 7.62498 -0.233412 13.3952
head 2.17107 -0.112626 5.75193
rclavicle 1.36664e-015 2.78299e-014
rhumerus -35.7323 -23.0052 -76.8032
rradius 23.9804
rwrist 7.06122
rhand -9.89393 -49.8842
rfingers 7.12502
rthumb 16.0858 -79.2365
lclavicle 1.36664e-015 2.78299e-014
lhumerus -31.2608 13.6905 78.6438
lradius 12.7144
lwrist -18.8833
lhand -23.3896 -12.8231
lfingers 7.12502
lthumb 3.06686 17.1346
rfemur -24.2718 9.03306 17.5026
rtibia 9.08993
rfoot -20.7907 -10.095
rtoes -22.2256
lfemur -25.7698 -11.3986 -17.6309
ltibia 8.18808
lfoot -6.97983 -2.13077
ltoes -33.3614
525
root 8.86366 16.3032 18.9861 -52.3928 -88.0381 79.3243
lowerback -30.6077 -2.47243 -5.92683
upperback -3.54509 -1.64846 -0.0255981
thorax 12.1607 -1.1954 2.50608
lowerneck 0.359089 0.444338 -10.0631
upperneck 7.6434 -0.244362 13.3347
head 2.17674 -0.118137 5.72369
rclavicle -6.08778e-015 -3.97569e-015
rhumerus -35.7576 -23.0085 -76.8258
rradius 23.9942
rwrist 7.0094
rhand -9.87593 -49.99
rfingers 7.12502
rthumb 16.1031 -79.3409
lclavicle -6.08778e-015 -3.97569e-015
lhumerus -31.3526 13.6756 78.5604
lradius 12.659
lwrist -18.9291
lhand -23.3471 -12.9961
lfingers 7.12502
lthumb 3.10793 16.961
rfemur -24.1163 9.26634 17.3443
rtibia 8.87736
rfoot -20.8799 -9.89071
rtoes -18.8988
lfemur -25.7063 -11.4064 -17.6817
ltibia 8.21687
lfoot -7.01638 -2.1451
ltoes -33.6404
526
root 8.86331 16.3038 18.9866 -51.9816 -88.03 78.8885
lowerback -30.5714 -2.46083 -5.89205
upperback -3.52761 -1.63942 -0.0706597
thorax 12.162 -1.18873 2.44339
lowerneck 0.341394 0.459345 -9.98076
upperneck 7.67252 -0.220565 13.247
head 2.18594 -0.105244 5.68254
rclavicle 1.36664e-015 -4.37326e-014
rhumerus -35.7128 -22.8745 -76.9745
rradius 24.0364
rwrist 6.90424
rhand -9.05751 -50.1851
rfingers 7.12502
rthumb 16.8911 -79.4706
lclavicle 1.36664e-015 -4.37326e-014
lhumerus -31.4389 14.0703 78.258
lradius 12.6056
lwrist -19.38
lhand -23.237 -12.985
lfingers 7.12502
lthumb 3.21421 16.9705
rfemur -24.1188 9.11 17.4449
rtibia 8.95336
rfoot -20.6152 -10.2449
rtoes -21.4772
lfemur -25.7022 -11.492 -17.6696
ltibia 8.25161
lfoot -7.11584 -2.06296
ltoes -33.2463
527
root 8.8646 16.3035 18.9872 -51.0017 -88.0288 77.9111
lowerback -30.5479 -2.43884 -5.87088
upperback -3.50274 -1.61313 -0.0957309
thorax 12.1769 -1.17519 2.41575
lowerneck 0.297006 0.441777 -9.86155
upperneck 7.69315 -0.239919 13.171
head 2.20228 -0.111691 5.63814
rclavicle -4.02539e-015 -3.26007e-014
rhumerus -35.6975 -23.0021 -76.9771
rradius 24.1048
rwrist 6.92773
rhand -10.164 -50.5613
rfingers 7.12502
rthumb 15.8257 -79.9345
lclavicle -4.02539e-015 -3.26007e-014
lhumerus -31.4532 14.267 78.0915
lradius 12.562
lwrist -19.6739
lhand -23.108 -13.0826
lfingers 7.12502
lthumb 3.33879 16.871
rfemur -24.117 8.86679 17.5274
rtibia 8.93106
rfoot -20.4618 -10.1939
rtoes -22.6169
lfemur -25.7259 -11.6182 -17.6135
ltibia 8.26935
lfoot -7.17273 -1.97043
ltoes -31.8605
528
root 8.86392 16.3028 18.9859 -48.7445 -88.0442 75.655
lowerback -30.5613 -2.43513 -5.84687
upperback -3.46663 -1.61382 -0.0747665
thorax 12.2243 -1.17511 2.4246
lowerneck 0.250586 0.42132 -9.79373
upperneck 7.72154 -0.263126 13.1054
head 2.22158 -0.120935 5.60589
rclavicle 8.69683e-015 9.14409e-015
rhumerus -35.6822 -23.3168 -76.8431
rradius 24.1073
rwrist 7.22636
rhand -9.95343 -50.6388
rfingers 7.12502
rthumb 16.0285 -79.9958
lclavicle 8.69683e-015 9.14409e-015
lhumerus -31.4671 14.5007 77.9713
lradius 12.4833
lwrist -20.0002
lhand -23.0871 -13.3924
lfingers 7.12502
lthumb 3.35902 16.5609
rfemur -24.1007 9.0192 17.5609
rtibia 8.98404
rfoot -20.5609 -10.3442
rtoes -22.5232
lfemur -25.7414 -11.5867 -17.5638
ltibia 8.29729
lfoot -7.08667 -2.0373
ltoes -32.5099
529
root 8.86233 16.3024 18.9849 -46.0626 -88.0577 73.0597
lowerback -30.6814 -2.46775 -5.80113
upperback -3.46223 -1.66813 -0.0457859
thorax 12.2858 -1.20007 2.40685
lowerneck 0.254296 0.438001 -9.73099
upperneck 7.76066 -0.239729 13.0195
head 2.23017 -0.10954 5.56881
rclavicle 1.41137e-014 -9.14409e-015
rhumerus -35.6963 -23.35 -76.8579
rradius 24.1608
rwrist 7.41659
rhand -9.54544 -50.6093
rfingers 7.12502
rthumb 16.4213 -79.9342
lclavicle 1.41137e-014 -9.14409e-015
lhumerus -31.5494 14.9115 77.7518
lradius 12.3962
lwrist -20.4134
lhand -23.0515 -13.5936
lfingers 7.12502
lthumb 3.39339 16.3591
rfemur -24.1573 8.98743 17.6306
rtibia 9.0987
rfoot -20.8528 -10.2726
rtoes -21.7325
lfemur -25.8654 -11.4827 -17.5195
ltibia 8.36066
lfoot -7.00487 -2.20574
ltoes -33.5548
